<mxfile host="app.diagrams.net" modified="2024-06-11T09:27:01.607Z" agent="Mozilla/5.0 (Windows NT 10.0; Win64; x64) AppleWebKit/537.36 (KHTML, like Gecko) Chrome/125.0.0.0 Safari/537.36" etag="6Rcw47mUJyEJUW-V8yQ7" version="24.5.2" type="github">
  <diagram name="Page-1" id="UgdC-4bV6LWBSdgT-otf">
    <mxGraphModel dx="1373" dy="1543" grid="1" gridSize="10" guides="1" tooltips="1" connect="1" arrows="1" fold="1" page="1" pageScale="1" pageWidth="850" pageHeight="1100" math="0" shadow="0">
      <root>
        <mxCell id="0" />
        <mxCell id="1" parent="0" />
        <mxCell id="G6sVL2a6K9RXescYp-5z-1" value="Bison Hunting" style="rounded=0;whiteSpace=wrap;html=1;fillColor=#d5e8d4;strokeColor=#82b366;" vertex="1" parent="1">
          <mxGeometry x="110" y="50" width="120" height="60" as="geometry" />
        </mxCell>
        <mxCell id="G6sVL2a6K9RXescYp-5z-2" value="Horse Selective Breeding" style="rounded=0;whiteSpace=wrap;html=1;fillColor=#d5e8d4;strokeColor=#82b366;" vertex="1" parent="1">
          <mxGeometry x="270" y="140" width="120" height="60" as="geometry" />
        </mxCell>
        <mxCell id="G6sVL2a6K9RXescYp-5z-3" value="Animal Husbandry" style="rounded=0;whiteSpace=wrap;html=1;fillColor=#d5e8d4;strokeColor=#82b366;" vertex="1" parent="1">
          <mxGeometry x="270" y="230" width="120" height="60" as="geometry" />
        </mxCell>
        <mxCell id="G6sVL2a6K9RXescYp-5z-4" value="Foraging" style="rounded=0;whiteSpace=wrap;html=1;fillColor=#d5e8d4;strokeColor=#82b366;" vertex="1" parent="1">
          <mxGeometry x="110" y="-40" width="120" height="60" as="geometry" />
        </mxCell>
        <mxCell id="G6sVL2a6K9RXescYp-5z-5" value="Harsh Foraging" style="rounded=0;whiteSpace=wrap;html=1;fillColor=#d5e8d4;strokeColor=#82b366;" vertex="1" parent="1">
          <mxGeometry x="270" y="-40" width="120" height="60" as="geometry" />
        </mxCell>
        <mxCell id="G6sVL2a6K9RXescYp-5z-6" value="Storage Solution" style="rounded=0;whiteSpace=wrap;html=1;fillColor=#d5e8d4;strokeColor=#82b366;" vertex="1" parent="1">
          <mxGeometry x="270" y="-140" width="120" height="60" as="geometry" />
        </mxCell>
        <mxCell id="G6sVL2a6K9RXescYp-5z-7" value="Advanced Hide Skinning" style="rounded=0;whiteSpace=wrap;html=1;fillColor=#fff2cc;strokeColor=#d6b656;" vertex="1" parent="1">
          <mxGeometry x="270" y="350" width="120" height="60" as="geometry" />
        </mxCell>
        <mxCell id="G6sVL2a6K9RXescYp-5z-8" value="&lt;div&gt;&lt;span style=&quot;background-color: initial;&quot;&gt;Handicraft Tools&lt;/span&gt;&lt;br&gt;&lt;/div&gt;" style="rounded=0;whiteSpace=wrap;html=1;fillColor=#fff2cc;strokeColor=#d6b656;" vertex="1" parent="1">
          <mxGeometry x="440" y="350" width="120" height="60" as="geometry" />
        </mxCell>
        <mxCell id="G6sVL2a6K9RXescYp-5z-9" value="Foreign Communication" style="rounded=0;whiteSpace=wrap;html=1;fillColor=#dae8fc;strokeColor=#6c8ebf;" vertex="1" parent="1">
          <mxGeometry x="750" y="50" width="120" height="60" as="geometry" />
        </mxCell>
        <mxCell id="G6sVL2a6K9RXescYp-5z-10" value="Council of Fire" style="rounded=0;whiteSpace=wrap;html=1;fillColor=#dae8fc;strokeColor=#6c8ebf;" vertex="1" parent="1">
          <mxGeometry x="750" y="140" width="120" height="60" as="geometry" />
        </mxCell>
        <mxCell id="G6sVL2a6K9RXescYp-5z-11" value="Shamanism" style="rounded=0;whiteSpace=wrap;html=1;" vertex="1" parent="1">
          <mxGeometry x="750" y="260" width="120" height="60" as="geometry" />
        </mxCell>
        <mxCell id="G6sVL2a6K9RXescYp-5z-12" value="Herbal Healing" style="rounded=0;whiteSpace=wrap;html=1;" vertex="1" parent="1">
          <mxGeometry x="750" y="350" width="120" height="60" as="geometry" />
        </mxCell>
        <mxCell id="G6sVL2a6K9RXescYp-5z-13" value="Rainfall Worship" style="rounded=0;whiteSpace=wrap;html=1;" vertex="1" parent="1">
          <mxGeometry x="750" y="440" width="120" height="60" as="geometry" />
        </mxCell>
        <mxCell id="G6sVL2a6K9RXescYp-5z-14" value="Firearm Knowledge" style="rounded=0;whiteSpace=wrap;html=1;fillColor=#f8cecc;strokeColor=#b85450;" vertex="1" parent="1">
          <mxGeometry x="440" y="470" width="120" height="60" as="geometry" />
        </mxCell>
        <mxCell id="G6sVL2a6K9RXescYp-5z-15" value="Metal Arrowtips" style="rounded=0;whiteSpace=wrap;html=1;fillColor=#f8cecc;strokeColor=#b85450;" vertex="1" parent="1">
          <mxGeometry x="440" y="560" width="120" height="60" as="geometry" />
        </mxCell>
        <mxCell id="G6sVL2a6K9RXescYp-5z-16" value="Metal Blading" style="rounded=0;whiteSpace=wrap;html=1;fillColor=#f8cecc;strokeColor=#b85450;" vertex="1" parent="1">
          <mxGeometry x="440" y="650" width="120" height="60" as="geometry" />
        </mxCell>
        <mxCell id="G6sVL2a6K9RXescYp-5z-17" value="Reinforced Bow" style="rounded=0;whiteSpace=wrap;html=1;fillColor=#f8cecc;strokeColor=#b85450;" vertex="1" parent="1">
          <mxGeometry x="270" y="470" width="120" height="60" as="geometry" />
        </mxCell>
        <mxCell id="G6sVL2a6K9RXescYp-5z-18" value="Reinforced Shield" style="rounded=0;whiteSpace=wrap;html=1;fillColor=#f8cecc;strokeColor=#b85450;" vertex="1" parent="1">
          <mxGeometry x="270" y="560" width="120" height="60" as="geometry" />
        </mxCell>
        <mxCell id="G6sVL2a6K9RXescYp-5z-20" value="Horse Taming" style="rounded=0;whiteSpace=wrap;html=1;fillColor=#d5e8d4;strokeColor=#82b366;" vertex="1" parent="1">
          <mxGeometry x="110" y="140" width="120" height="60" as="geometry" />
        </mxCell>
        <mxCell id="G6sVL2a6K9RXescYp-5z-21" value="Increase Chieftain Flag" style="rounded=0;whiteSpace=wrap;html=1;fillColor=#dae8fc;strokeColor=#6c8ebf;" vertex="1" parent="1">
          <mxGeometry x="750" y="-40" width="120" height="60" as="geometry" />
        </mxCell>
        <mxCell id="G6sVL2a6K9RXescYp-5z-22" value="Skinning" style="rounded=0;whiteSpace=wrap;html=1;fillColor=#fff2cc;strokeColor=#d6b656;" vertex="1" parent="1">
          <mxGeometry x="110" y="350" width="120" height="60" as="geometry" />
        </mxCell>
      </root>
    </mxGraphModel>
  </diagram>
</mxfile>
